<svg width="14" height="13" viewBox="0 0 14 13" fill="none" xmlns="http://www.w3.org/2000/svg">
<path d="M11.1922 6.49988L6.10394 1.62545C5.73828 1.275 5.73828 0.706895 6.10394 0.356587C6.4696 0.00613754 7.06257 0.00613754 7.42838 0.356587L13.179 5.86567C13.3618 6.04091 13.4531 6.27034 13.4531 6.49988C13.4531 6.7295 13.3616 6.9591 13.179 7.13426L7.42838 12.6433C7.06257 12.9939 6.46957 12.9939 6.10394 12.6433C5.73828 12.293 5.73828 11.7248 6.10394 11.3745L11.1922 6.49988ZM0.274245 11.3745C-0.091415 11.7248 -0.091415 12.293 0.274245 12.6433C0.639905 12.9939 1.2327 12.9939 1.59872 12.6433L7.34932 7.13428C7.53215 6.95913 7.62332 6.72953 7.62332 6.49991C7.62332 6.27037 7.53198 6.04077 7.34932 5.8657L1.59872 0.356587C1.23273 0.00613754 0.639905 0.00613754 0.274245 0.356587C-0.091415 0.706895 -0.091415 1.27498 0.274245 1.62545L5.36267 6.49988L0.274245 11.3745Z" fill="white"/>
</svg>
